<svg width="57" height="43" viewBox="0 0 57 43" fill="none" xmlns="http://www.w3.org/2000/svg">
<path d="M-0.000488281 19.1291C0.332352 21.0168 0.601791 22.9243 1.28332 24.731C5.09711 34.8506 12.3502 40.9599 23.0447 42.6383C31.9917 44.0422 39.8016 41.3252 46.3217 35.0757C49.0062 32.5029 51.0032 29.4226 52.3584 25.9532C52.606 25.3194 52.9487 24.7784 53.3945 24.2729C55.7521 21.5914 56.9725 18.4617 56.9884 14.8937C57.0082 10.8044 56.9963 6.71702 56.9923 2.6277C56.9923 0.866383 56.1246 0.013371 54.3395 0.013371C49.2736 0.0113964 44.2058 -0.0201967 39.1399 0.0212692C33.23 0.0706334 28.8555 2.74025 26.0006 7.88202C25.7391 8.35196 25.5866 8.35591 25.2141 8.01036C22.0244 5.06036 18.2205 3.80256 13.8995 3.86772C10.1689 3.92301 6.43639 3.89142 2.70383 3.87365C1.43587 3.86772 0.502735 4.33175 -0.000488281 5.53228V19.1311V19.1291ZM45.3747 28.9585C45.2895 29.3712 45.0577 29.5746 44.8734 29.7957C40.4613 35.1606 34.813 38.0948 27.8253 38.3318C21.428 38.549 15.8768 36.4599 11.2685 32.031C7.16745 28.0897 4.89899 23.2777 4.58992 17.5653C4.43935 14.7831 4.56615 12.001 4.49285 9.2188C4.47502 8.57311 4.79795 8.50598 5.31504 8.50993C8.62759 8.52375 11.9421 8.42897 15.2507 8.54547C19.0962 8.67974 22.0065 10.5062 23.9501 13.8314C24.2057 14.2697 24.3107 14.7298 24.3126 15.2392C24.3186 16.3213 24.2869 17.4014 24.3978 18.4854C25.0259 24.6481 30.0145 29.2133 36.2236 29.1994C39.2528 29.1935 42.2919 29.4087 45.3747 28.9566V28.9585ZM48.6377 22.2786C47.0725 23.718 45.234 24.5 43.1458 24.5513C40.7248 24.6105 38.3038 24.5967 35.8828 24.5612C32.6099 24.5158 29.6896 22.091 29.1309 18.8764C28.7802 16.8564 28.8218 14.7989 29.1269 12.773C29.749 8.64617 33.6024 4.9794 37.654 4.69309C42.3415 4.36334 47.0389 4.62201 51.7323 4.54895C52.1721 4.54303 52.3643 4.72469 52.3584 5.16106C52.3484 5.94892 52.3584 6.73677 52.3584 7.52462C52.3584 8.78439 52.3584 8.77057 51.0983 8.78834C49.2954 8.81401 47.4926 8.69949 45.6917 8.85745C45.0141 8.91669 44.4574 9.20695 44.0631 9.7618C43.5341 10.5042 43.4172 11.298 43.8511 12.1254C44.2751 12.9369 44.9586 13.3871 45.8739 13.397C47.7759 13.4187 49.6798 13.4167 51.5817 13.4009C52.0849 13.397 52.39 13.5076 52.3623 14.0901C52.3227 14.949 52.3465 15.8059 52.2117 16.6649C52.0949 17.4132 51.7818 17.6917 50.9993 17.6719C49.2717 17.6304 47.5381 17.6304 45.8145 17.7272C44.4633 17.8042 43.544 18.8409 43.5837 20.0276C43.6273 21.313 44.6555 22.2549 46.0463 22.2707C46.9101 22.2806 47.7739 22.2707 48.6377 22.2707V22.2786Z" fill="white"/>
<path d="M15 14.4637C14.9893 13.1346 13.7827 11.9706 12.4497 12.0006C11.1466 12.0306 10.0086 13.1903 10 14.4916C9.99147 15.7993 11.2152 17.0191 12.5182 16.9998C13.8663 16.9805 15.0064 15.8121 14.9979 14.4616L15 14.4637Z" fill="white"/>
</svg>
