<svg width="36" height="60" viewBox="0 0 36 60" fill="none" xmlns="http://www.w3.org/2000/svg">
<path d="M5.10513 60C5.76167 60.0007 6.41189 59.8716 7.01841 59.6202C7.62493 59.3688 8.17582 59 8.63941 58.535L33.6344 33.5347C34.099 33.0707 34.4676 32.5197 34.7191 31.9131C34.9706 31.3065 35.1001 30.6563 35.1001 29.9996C35.1001 29.3429 34.9706 28.6927 34.7191 28.0861C34.4676 27.4795 34.099 26.9285 33.6344 26.4646L8.63941 1.46426C8.17529 1.00003 7.62428 0.631788 7.01787 0.380549C6.41146 0.129311 5.76151 0 5.10513 0C4.44875 0 3.7988 0.129311 3.19238 0.380549C2.58597 0.631788 2.03497 1.00003 1.57084 1.46426C1.10671 1.92849 0.738537 2.47961 0.487354 3.08615C0.236168 3.6927 0.106888 4.34279 0.106888 4.99931C0.106888 5.65582 0.236168 6.30591 0.487354 6.91246C0.738537 7.519 1.10671 8.07012 1.57084 8.53435L23.0315 29.9996L1.57084 51.4649C0.86948 52.1632 0.391369 53.0542 0.197186 54.0248C0.00300217 54.9954 0.101498 56.0018 0.480183 56.9163C0.858868 57.8308 1.50066 58.6122 2.3241 59.1612C3.14754 59.7102 4.11551 60.0022 5.10513 60Z" fill="#EAEAEA"/>
</svg>
