<?xml version="1.0" encoding="UTF-8"?>
<svg id="Capa_2" data-name="Capa 2" xmlns="http://www.w3.org/2000/svg" viewBox="0 0 35 60">
  <defs>
    <style>
      .cls-1 {
        fill: #eaeaea;
        stroke-width: 0px;
      }
    </style>
  </defs>
  <g id="Capa_1-2" data-name="Capa 1">
    <g id="_ð_icon_chevron_left_minor_" data-name="ð¦ icon &amp;quot;chevron left minor&amp;quot;">
      <path id="Vector" class="cls-1" d="M5.01,60c.66,0,1.31-.13,1.91-.38.61-.25,1.16-.62,1.62-1.09l24.99-25c.46-.46.83-1.01,1.08-1.62s.38-1.26.38-1.91-.13-1.31-.38-1.91-.62-1.16-1.08-1.62L8.54,1.46c-.46-.46-1.02-.83-1.62-1.08-.61-.25-1.26-.38-1.91-.38s-1.31.13-1.91.38c-.61.25-1.16.62-1.62,1.08-.46.46-.83,1.02-1.08,1.62C.14,3.69,0,4.34,0,5s.13,1.31.38,1.91c.25.61.62,1.16,1.08,1.62l21.46,21.47L1.47,51.46c-.7.7-1.18,1.59-1.37,2.56-.19.97-.1,1.98.28,2.89.38.91,1.02,1.7,1.84,2.24s1.79.84,2.78.84Z"/>
    </g>
  </g>
</svg>