<?xml version="1.0" encoding="UTF-8"?>
<svg id="Capa_2" data-name="Capa 2" xmlns="http://www.w3.org/2000/svg" viewBox="0 0 35 60">
  <defs>
    <style>
      .cls-1 {
        fill: #eaeaea;
        stroke-width: 0px;
      }
    </style>
  </defs>
  <g id="Capa_1-2" data-name="Capa 1">
    <g id="_ð_icon_chevron_left_minor_" data-name="ð¦ icon &amp;quot;chevron left minor&amp;quot;">
      <path id="Vector" class="cls-1" d="M32.78,59.16c.82-.55,1.47-1.33,1.84-2.24.38-.91.48-1.92.28-2.89-.19-.97-.67-1.86-1.37-2.56L12.07,30l21.46-21.47c.46-.46.83-1.02,1.08-1.62.25-.61.38-1.26.38-1.91s-.13-1.31-.38-1.91c-.25-.61-.62-1.16-1.08-1.62-.46-.46-1.02-.83-1.62-1.08C31.3.13,30.65,0,29.99,0s-1.31.13-1.91.38c-.61.25-1.16.62-1.62,1.08L1.47,26.46c-.46.46-.83,1.01-1.08,1.62S0,29.34,0,30s.13,1.31.38,1.91.62,1.16,1.08,1.62l24.99,25c.46.47,1.01.83,1.62,1.09.61.25,1.26.38,1.91.38.99,0,1.96-.29,2.78-.84Z"/>
    </g>
  </g>
</svg>