<svg width="36" height="60" viewBox="0 0 36 60" fill="none" xmlns="http://www.w3.org/2000/svg">
<path d="M30.895 60C30.2384 60.0007 29.5882 59.8716 28.9817 59.6202C28.3752 59.3688 27.8243 59 27.3607 58.535L2.36571 33.5347C1.90107 33.0707 1.53246 32.5197 1.28095 31.9131C1.02945 31.3065 0.899994 30.6563 0.899994 29.9996C0.899994 29.3429 1.02945 28.6927 1.28095 28.0861C1.53246 27.4795 1.90107 26.9285 2.36571 26.4646L27.3607 1.46426C27.8248 1.00003 28.3758 0.631788 28.9822 0.380549C29.5886 0.129311 30.2386 0 30.895 0C31.5513 0 32.2013 0.129311 32.8077 0.380549C33.4141 0.631788 33.9651 1.00003 34.4293 1.46426C34.8934 1.92849 35.2616 2.47961 35.5127 3.08615C35.7639 3.6927 35.8932 4.34279 35.8932 4.99931C35.8932 5.65582 35.7639 6.30591 35.5127 6.91246C35.2616 7.519 34.8934 8.07012 34.4293 8.53435L12.9686 29.9996L34.4293 51.4649C35.1306 52.1632 35.6087 53.0542 35.8029 54.0248C35.9971 54.9954 35.8986 56.0018 35.5199 56.9163C35.1412 57.8308 34.4994 58.6122 33.676 59.1612C32.8525 59.7102 31.8846 60.0022 30.895 60Z" fill="#EAEAEA"/>
</svg>
