<svg xmlns="http://www.w3.org/2000/svg" width="51" height="51" viewBox="0 0 51 51" fill="none">
  <circle cx="25.4278" cy="25.8517" r="24.9278" fill="#61442C"/>
  <mask id="path-2-outside-1_470_477" maskUnits="userSpaceOnUse" x="21.3739" y="16.7285" width="14" height="19" fill="black">
    <rect fill="white" x="21.3739" y="16.7285" width="14" height="19"/>
    <path d="M22.483 33.701C22.2751 33.3463 22.3729 32.8735 22.7031 32.6502L31.8493 26.385L22.7031 20.1329C22.3729 19.9096 22.2751 19.4368 22.483 19.0821C22.6909 18.7275 23.131 18.6224 23.4612 18.8457L33.5489 25.7545C33.7568 25.899 33.8791 26.1354 33.8791 26.3981C33.8791 26.6608 33.7568 26.8972 33.5489 27.0417L23.4612 33.9505C23.3389 34.0293 23.2044 34.0687 23.0821 34.0687C22.8498 34.0687 22.6175 33.9374 22.483 33.7141"/>
  </mask>
  <path d="M22.483 33.701C22.2751 33.3463 22.3729 32.8735 22.7031 32.6502L31.8493 26.385L22.7031 20.1329C22.3729 19.9096 22.2751 19.4368 22.483 19.0821C22.6909 18.7275 23.131 18.6224 23.4612 18.8457L33.5489 25.7545C33.7568 25.899 33.8791 26.1354 33.8791 26.3981C33.8791 26.6608 33.7568 26.8972 33.5489 27.0417L23.4612 33.9505C23.3389 34.0293 23.2044 34.0687 23.0821 34.0687C22.8498 34.0687 22.6175 33.9374 22.483 33.7141" fill="#BDF1FD"/>
  <path d="M22.7031 32.6502L23.2633 33.4785L23.2682 33.4752L22.7031 32.6502ZM31.8493 26.385L32.4144 27.21L33.62 26.3841L32.4136 25.5594L31.8493 26.385ZM22.7031 20.1329L23.2674 19.3073L23.2633 19.3046L22.7031 20.1329ZM23.4612 18.8457L24.0263 18.0206L24.0214 18.0174L23.4612 18.8457ZM33.5489 25.7545L34.1197 24.9334L34.114 24.9295L33.5489 25.7545ZM33.5489 27.0417L34.114 27.8668L34.1196 27.8628L33.5489 27.0417ZM23.4612 33.9505L24.0029 34.7911L24.0147 34.7835L24.0262 34.7756L23.4612 33.9505ZM23.3457 33.1953C23.375 33.2452 23.3779 33.2935 23.3702 33.3306C23.3624 33.3678 23.3354 33.4298 23.2633 33.4785L22.1429 31.8218C21.3501 32.358 21.1619 33.4246 21.6203 34.2066L23.3457 33.1953ZM23.2682 33.4752L32.4144 27.21L31.2842 25.56L22.138 31.8252L23.2682 33.4752ZM32.4136 25.5594L23.2674 19.3073L22.1388 20.9584L31.285 27.2105L32.4136 25.5594ZM23.2633 19.3046C23.3354 19.3533 23.3624 19.4153 23.3702 19.4525C23.3779 19.4895 23.375 19.5379 23.3457 19.5878L21.6203 18.5764C21.1619 19.3585 21.3501 20.425 22.1429 20.9612L23.2633 19.3046ZM23.3457 19.5878C23.3127 19.6441 23.2483 19.6982 23.1603 19.7194C23.0715 19.7408 22.9746 19.7239 22.901 19.674L24.0214 18.0174C23.1915 17.456 22.1071 17.7459 21.6203 18.5764L23.3457 19.5878ZM22.8961 19.6707L32.9839 26.5796L34.114 24.9295L24.0262 18.0206L22.8961 19.6707ZM32.9782 26.5756C32.9087 26.5274 32.8791 26.4526 32.8791 26.3981H34.8791C34.8791 25.8183 34.6048 25.2706 34.1196 24.9334L32.9782 26.5756ZM32.8791 26.3981C32.8791 26.3437 32.9087 26.2688 32.9782 26.2206L34.1196 27.8628C34.6048 27.5256 34.8791 26.9779 34.8791 26.3981H32.8791ZM32.9839 26.2166L22.8961 33.1255L24.0262 34.7756L34.114 27.8668L32.9839 26.2166ZM22.9195 33.11C22.9344 33.1003 22.9537 33.0907 22.9783 33.0832C23.0023 33.0758 23.037 33.0687 23.0821 33.0687V35.0687C23.4123 35.0687 23.7329 34.9651 24.0029 34.7911L22.9195 33.11ZM23.0821 33.0687C23.2226 33.0687 23.3049 33.1404 23.3396 33.1981L21.6264 34.2301C21.9301 34.7343 22.4771 35.0687 23.0821 35.0687V33.0687Z" fill="#BDF1FD" mask="url(#path-2-outside-1_470_477)"/>
</svg>