<svg xmlns="http://www.w3.org/2000/svg" width="15" height="19" viewBox="0 0 15 19" fill="none">
  <mask id="path-1-outside-1_470_476" maskUnits="userSpaceOnUse" x="0.0827026" y="0.0683594" width="14" height="19" fill="black">
    <rect fill="white" x="0.0827026" y="0.0683594" width="14" height="19"/>
    <path d="M12.9736 2.09592C13.1815 2.45056 13.0837 2.9234 12.7535 3.14669L3.60732 9.41191L12.7535 15.664C13.0837 15.8873 13.1815 16.3601 12.9736 16.7148C12.7657 17.0694 12.3256 17.1745 11.9954 16.9512L1.90769 10.0424C1.69982 9.89789 1.57755 9.66146 1.57755 9.39877C1.57755 9.13608 1.69982 8.89966 1.90769 8.75518L11.9954 1.84636C12.1177 1.76756 12.2522 1.72815 12.3745 1.72815C12.6068 1.72815 12.8391 1.8595 12.9736 2.08279"/>
  </mask>
  <path d="M12.9736 2.09592C13.1815 2.45056 13.0837 2.9234 12.7535 3.14669L3.60732 9.41191L12.7535 15.664C13.0837 15.8873 13.1815 16.3601 12.9736 16.7148C12.7657 17.0694 12.3256 17.1745 11.9954 16.9512L1.90769 10.0424C1.69982 9.89789 1.57755 9.66146 1.57755 9.39877C1.57755 9.13608 1.69982 8.89966 1.90769 8.75518L11.9954 1.84636C12.1177 1.76756 12.2522 1.72815 12.3745 1.72815C12.6068 1.72815 12.8391 1.8595 12.9736 2.08279" fill="#BDF1FD"/>
  <path d="M12.7535 3.14669L12.1933 2.31834L12.1884 2.32169L12.7535 3.14669ZM3.60732 9.41191L3.04219 8.58691L1.83656 9.41277L3.043 10.2375L3.60732 9.41191ZM12.7535 15.664L12.1892 16.4895L12.1933 16.4923L12.7535 15.664ZM11.9954 16.9512L11.4303 17.7762L11.4352 17.7795L11.9954 16.9512ZM1.90769 10.0424L1.33694 10.8635L1.34264 10.8674L1.90769 10.0424ZM1.90769 8.75518L1.34262 7.9301L1.33696 7.93404L1.90769 8.75518ZM11.9954 1.84636L11.4537 1.00582L11.4419 1.0134L11.4304 1.02131L11.9954 1.84636ZM12.1109 2.6016C12.0816 2.5517 12.0787 2.50333 12.0864 2.4663C12.0942 2.42912 12.1212 2.3671 12.1933 2.31836L13.3138 3.97503C14.1065 3.43883 14.2947 2.37228 13.8363 1.59024L12.1109 2.6016ZM12.1884 2.32169L3.04219 8.58691L4.17245 10.2369L13.3187 3.97169L12.1884 2.32169ZM3.043 10.2375L12.1892 16.4895L13.3178 14.8384L4.17165 8.58635L3.043 10.2375ZM12.1933 16.4923C12.1212 16.4436 12.0942 16.3816 12.0864 16.3444C12.0787 16.3074 12.0816 16.259 12.1109 16.2091L13.8363 17.2204C14.2947 16.4384 14.1066 15.3718 13.3138 14.8357L12.1933 16.4923ZM12.1109 16.2091C12.1439 16.1528 12.2083 16.0986 12.2963 16.0775C12.3851 16.0561 12.482 16.073 12.5556 16.1228L11.4352 17.7795C12.2651 18.3408 13.3495 18.0509 13.8363 17.2204L12.1109 16.2091ZM12.5605 16.1261L2.47275 9.21732L1.34264 10.8674L11.4304 17.7762L12.5605 16.1261ZM2.47843 9.22123C2.54786 9.26949 2.57755 9.34432 2.57755 9.39877L0.577548 9.39877C0.577548 9.97861 0.851791 10.5263 1.33696 10.8635L2.47843 9.22123ZM2.57755 9.39877C2.57755 9.45322 2.54786 9.52805 2.47843 9.57631L1.33696 7.93404C0.851792 8.27126 0.577548 8.81894 0.577548 9.39877L2.57755 9.39877ZM2.47275 9.58023L12.5605 2.67142L11.4304 1.02131L1.34264 7.93012L2.47275 9.58023ZM12.5372 2.68691C12.5222 2.69656 12.5029 2.70615 12.4783 2.7137C12.4543 2.72109 12.4196 2.72815 12.3745 2.72815L12.3745 0.728153C12.0443 0.728153 11.7237 0.83177 11.4537 1.00582L12.5372 2.68691ZM12.3745 2.72815C12.2341 2.72815 12.1517 2.65643 12.117 2.59878L13.8302 1.5668C13.5265 1.06257 12.9795 0.728153 12.3745 0.728153L12.3745 2.72815Z" fill="#BDF1FD" mask="url(#path-1-outside-1_470_476)"/>
</svg>